<svg width="84" height="18" viewBox="0 0 84 18" fill="none" xmlns="http://www.w3.org/2000/svg">
<circle cx="31" cy="9" r="9" fill="white"/>
<path fill-rule="evenodd" clip-rule="evenodd" d="M17.6144 11.6144C16.787 11.8652 15.9093 12 15 12C10.0294 12 6 7.97059 6 3.00002C6 2.09076 6.13484 1.21299 6.38561 0.38562C2.69008 1.50571 0 4.93871 0 9.00002C0 13.9706 4.02944 18 9 18C13.0613 18 16.4943 15.3099 17.6144 11.6144Z" fill="white"/>
<circle cx="53" cy="9" r="9" fill="white"/>
<path fill-rule="evenodd" clip-rule="evenodd" d="M83.0645 13C83.6633 11.795 84 10.4368 84 9C84 4.02944 79.9706 0 75 0C70.0294 0 66 4.02944 66 9C66 10.4368 66.3367 11.795 66.9355 13C68.4082 10.0366 71.4663 8 75 8C78.5337 8 81.5918 10.0366 83.0645 13Z" fill="white"/>
</svg>
